<svg width="20" height="18" viewBox="0 0 20 18" fill="none" xmlns="http://www.w3.org/2000/svg">
<g id="eye-hide">
<path id="Vector" d="M3.3593 2.61133L2.5 3.33423L16.6408 15.2304L17.5001 14.5075L3.3593 2.61133Z" fill="#0914D6"/>
<path id="Vector_2" d="M10.1304 6.82056L12.4964 8.81101C12.4635 8.29208 12.2037 7.80171 11.7669 7.43425C11.3301 7.06679 10.7472 6.84821 10.1304 6.82056Z" fill="#0914D6"/>
<path id="Vector_3" d="M9.86943 11.021L7.50342 9.03052C7.53629 9.54945 7.79611 10.0398 8.23291 10.4073C8.6697 10.7747 9.25259 10.9933 9.86943 11.021Z" fill="#0914D6"/>
<path id="Vector_4" d="M10 12.0755C9.42309 12.0755 8.85396 11.9635 8.33688 11.7483C7.8198 11.5331 7.36872 11.2204 7.01873 10.8346C6.66874 10.4488 6.42928 10.0002 6.31899 9.52385C6.20869 9.04747 6.23053 8.55611 6.38281 8.08799L3.68477 5.81787C2.58281 6.66703 1.53281 7.77514 0.625 8.92071C1.65703 10.3666 3.06875 11.8533 4.53906 12.7058C6.22578 13.6831 8.05977 14.1786 9.99062 14.1786C11.0458 14.1793 12.0931 14.0258 13.0859 13.7252L10.9918 11.9637C10.6686 12.0382 10.3351 12.0757 10 12.0755Z" fill="#0914D6"/>
<path id="Vector_5" d="M10 5.76602C10.5769 5.76599 11.146 5.87795 11.6631 6.09317C12.1802 6.30839 12.6313 6.62107 12.9813 7.00689C13.3313 7.39271 13.5707 7.84126 13.681 8.31764C13.7913 8.79402 13.7695 9.28538 13.6172 9.7535L16.3773 12.0755C17.516 11.2129 18.5676 10.0525 19.375 8.92078C18.3445 7.49358 16.918 6.01051 15.4227 5.14755C13.7148 4.16235 11.8871 3.66284 9.99062 3.66284C8.94704 3.6641 7.91223 3.82316 6.93555 4.13244L9.01016 5.87775C9.33269 5.80348 9.6656 5.7659 10 5.76602Z" fill="#0914D6"/>
</g>
</svg>
