<svg width="13" height="17" viewBox="0 0 13 17" fill="none" xmlns="http://www.w3.org/2000/svg">
<g id="Group 20" opacity="0.5">
<path id="Vector" d="M10.375 4.75001C10.375 6.82105 8.69605 8.50002 6.62501 8.50002C4.55394 8.50002 2.875 6.82105 2.875 4.75001C2.875 2.67894 4.55394 1 6.62501 1C8.69605 1 10.375 2.67894 10.375 4.75001Z" stroke="#4E4E4E" stroke-width="1.17025" stroke-linecap="round" stroke-linejoin="round"/>
<path id="Vector_2" d="M9.13978 10.375H4.11031C3.65794 10.375 3.43176 10.375 3.22944 10.4182C2.52922 10.5678 1.92372 11.0932 1.5845 11.8459C1.48648 12.0633 1.41496 12.3217 1.27191 12.8386C1.10002 13.4595 1.01407 13.77 1.00245 14.0204C0.961452 14.9039 1.43892 15.7016 2.14789 15.9341C2.34883 16 2.62061 16 3.16417 16H10.0859C10.6295 16 10.9013 16 11.1022 15.9341C11.8111 15.7016 12.2886 14.9039 12.2476 14.0204C12.236 13.77 12.15 13.4595 11.9782 12.8386C11.8351 12.3217 11.7636 12.0633 11.6655 11.8459C11.3263 11.0932 10.7208 10.5678 10.0206 10.4182C9.81825 10.375 9.59212 10.375 9.13978 10.375Z" stroke="#4E4E4E" stroke-width="1.17025" stroke-linecap="round" stroke-linejoin="round"/>
</g>
</svg>
