<svg width="42" height="42" viewBox="0 0 42 42" fill="none" xmlns="http://www.w3.org/2000/svg">
<g id="iconsearch">
<path id="Vector" d="M30 27.3031L25.4246 22.9969C26.165 21.9719 26.6 20.7344 26.6 19.4C26.6 15.8656 23.5553 13 19.8 13C16.0447 13 13 15.8656 13 19.4C13 22.9344 16.0447 25.8 19.8 25.8C21.2178 25.8 22.5326 25.3906 23.6217 24.6938L28.1971 29L30 27.3031ZM15.55 19.4C15.55 17.1937 17.4559 15.4 19.8 15.4C22.1441 15.4 24.05 17.1937 24.05 19.4C24.05 21.6062 22.1441 23.4 19.8 23.4C17.4559 23.4 15.55 21.6062 15.55 19.4Z" fill="#4E4E4E"/>
</g>
</svg>
